<?xml version="1.0"?>
<VTKFile type="PolyData" version="0.1" byte_order="LittleEndian">
  <PolyData>
    <Piece NumberOfPoints="172" NumberOfVerts="0" NumberOfLines="171" NumberOfStrips="0" NumberOfPolys="0">
      <Points>
        <DataArray type="Float64" NumberOfComponents="3" format="ascii">0.000000 0.000000 0.000000 0.000000 0.000000 0.500000 0.000000 0.000000 1.000000 0.000000 0.000000 1.500000 0.000000 0.000000 2.000000 0.000000 0.000000 2.500000 0.000000 0.000000 3.000000 0.000000 0.000000 3.500000 0.000000 0.000000 4.000000 0.000000 0.000000 4.500000 0.000000 0.000000 5.000000 0.000000 0.000000 5.500000 0.000000 0.000000 6.000000 0.000000 0.000000 6.500000 0.000000 0.000000 7.000000 0.000000 0.000000 7.500000 0.000000 0.000000 8.000000 0.000000 0.000000 8.500000 0.000000 0.000000 9.000000 0.000000 0.000000 9.500000 0.000000 0.000000 10.000000 0.000000 0.000000 10.500000 0.000000 0.000000 11.000000 0.000000 0.000000 11.500000 0.000000 0.000000 12.000000 0.000000 0.000000 12.500000 0.000000 0.000000 13.000000 0.000000 0.000000 13.500000 0.000000 0.000000 14.000000 0.000000 0.000000 14.500000 0.000000 0.000000 15.000000 0.000000 0.000000 15.500000 0.000000 0.000000 16.000000 0.000000 0.000000 16.500000 0.000000 0.000000 17.000000 0.000000 0.000000 17.500000 0.000000 0.000000 18.000000 0.000000 0.000000 18.500000 0.000000 0.000000 19.000000 0.000000 0.000000 19.500000 0.000000 0.000000 20.000000 0.000000 0.000000 20.500000 0.000000 0.000000 21.000000 0.000000 0.000000 21.500000 0.000000 0.000000 22.000000 0.000000 0.000000 22.500000 0.000000 0.000000 23.000000 0.000000 0.000000 23.500000 0.000000 0.000000 24.000000 0.000000 0.000000 24.500000 0.000000 0.000000 25.000000 0.000000 0.000000 25.500000 0.000000 0.000000 26.000000 0.000000 0.000000 26.500000 0.000000 0.000000 27.000000 0.000000 0.000000 27.500000 0.000000 0.000000 28.000000 0.000000 0.000000 28.500000 0.000000 0.000000 29.000000 0.000000 0.000000 29.500000 0.000000 0.000000 30.000000 0.000000 0.000000 30.500000 0.000000 0.000000 31.000000 0.000000 0.000000 31.500000 0.000000 0.000000 32.000000 0.000000 0.000000 32.500000 0.000000 0.000000 33.000000 0.000000 0.000000 33.500000 0.000000 0.000000 34.000000 0.000000 0.000000 34.500000 0.000000 0.000000 35.000000 0.000000 0.000000 35.500000 0.000000 0.000000 36.000000 0.000000 0.000000 36.500000 0.000000 0.000000 37.000000 0.000000 0.000000 37.500000 0.000000 0.000000 38.000000 0.000000 0.000000 38.500000 0.000000 0.000000 39.000000 0.000000 0.000000 39.500000 0.000000 0.000000 40.000000 0.375000 0.000000 15.312500 0.750000 0.000000 15.625000 1.125000 0.000000 15.937500 1.500000 0.000000 16.250000 1.875000 0.000000 16.562500 2.250000 0.000000 16.875000 2.625000 0.000000 17.187500 3.000000 0.000000 17.500000 3.375000 0.000000 17.812500 3.750000 0.000000 18.125000 4.125000 0.000000 18.437500 4.500000 0.000000 18.750000 4.875000 0.000000 19.062500 5.250000 0.000000 19.375000 5.625000 0.000000 19.687500 6.000000 0.000000 20.000000 6.375000 0.000000 20.312500 6.750000 0.000000 20.625000 7.125000 0.000000 20.937500 7.500000 0.000000 21.250000 7.875000 0.000000 21.562500 8.250000 0.000000 21.875000 8.625000 0.000000 22.187500 9.000000 0.000000 22.500000 9.375000 0.000000 22.812500 9.750000 0.000000 23.125000 10.125000 0.000000 23.437500 10.500000 0.000000 23.750000 10.875000 0.000000 24.062500 11.250000 0.000000 24.375000 11.625000 0.000000 24.687500 12.000000 0.000000 25.000000 -0.333333 0.166667 25.333333 -0.666667 0.333333 25.666667 -1.000000 0.500000 26.000000 -1.333333 0.666667 26.333333 -1.666667 0.833333 26.666667 -2.000000 1.000000 27.000000 -2.333333 1.166667 27.333333 -2.666667 1.333333 27.666667 -3.000000 1.500000 28.000000 -3.333333 1.666667 28.333333 -3.666667 1.833333 28.666667 -4.000000 2.000000 29.000000 -4.333333 2.166667 29.333333 -4.666667 2.333333 29.666667 -5.000000 2.500000 30.000000 -5.333333 2.666667 30.333333 -5.666667 2.833333 30.666667 -6.000000 3.000000 31.000000 -6.333333 3.166667 31.333333 -6.666667 3.333333 31.666667 -7.000000 3.500000 32.000000 -7.333333 3.666667 32.333333 -7.666667 3.833333 32.666667 -8.000000 4.000000 33.000000 -8.333333 4.166667 33.333333 -8.666667 4.333333 33.666667 -9.000000 4.500000 34.000000 -9.333333 4.666667 34.333333 -9.666667 4.833333 34.666667 -10.000000 5.000000 35.000000 0.206897 -0.275862 32.344828 0.413793 -0.551724 32.689655 0.620690 -0.827586 33.034483 0.827586 -1.103448 33.379310 1.034483 -1.379310 33.724138 1.241379 -1.655172 34.068966 1.448276 -1.931034 34.413793 1.655172 -2.206897 34.758621 1.862069 -2.482759 35.103448 2.068966 -2.758621 35.448276 2.275862 -3.034483 35.793103 2.482759 -3.310345 36.137931 2.689655 -3.586207 36.482759 2.896552 -3.862069 36.827586 3.103448 -4.137931 37.172414 3.310345 -4.413793 37.517241 3.517241 -4.689655 37.862069 3.724138 -4.965517 38.206897 3.931034 -5.241379 38.551724 4.137931 -5.517241 38.896552 4.344828 -5.793103 39.241379 4.551724 -6.068966 39.586207 4.758621 -6.344828 39.931034 4.965517 -6.620690 40.275862 5.172414 -6.896552 40.620690 5.379310 -7.172414 40.965517 5.586207 -7.448276 41.310345 5.793103 -7.724138 41.655172 6.000000 -8.000000 42.000000</DataArray>
      </Points>
      <Lines>
        <DataArray type="Int64" Name="connectivity" format="ascii">0 1 1 2 2 3 3 4 4 5 5 6 6 7 7 8 8 9 9 10 10 11 11 12 12 13 13 14 14 15 15 16 16 17 17 18 18 19 19 20 20 21 21 22 22 23 23 24 24 25 25 26 26 27 27 28 28 29 29 30 30 31 31 32 32 33 33 34 34 35 35 36 36 37 37 38 38 39 39 40 40 41 41 42 42 43 43 44 44 45 45 46 46 47 47 48 48 49 49 50 50 51 51 52 52 53 53 54 54 55 55 56 56 57 57 58 58 59 59 60 60 61 61 62 62 63 63 64 64 65 65 66 66 67 67 68 68 69 69 70 70 71 71 72 72 73 73 74 74 75 75 76 76 77 77 78 78 79 79 80 30 81 81 82 82 83 83 84 84 85 85 86 86 87 87 88 88 89 89 90 90 91 91 92 92 93 93 94 94 95 95 96 96 97 97 98 98 99 99 100 100 101 101 102 102 103 103 104 104 105 105 106 106 107 107 108 108 109 109 110 110 111 111 112 50 113 113 114 114 115 115 116 116 117 117 118 118 119 119 120 120 121 121 122 122 123 123 124 124 125 125 126 126 127 127 128 128 129 129 130 130 131 131 132 132 133 133 134 134 135 135 136 136 137 137 138 138 139 139 140 140 141 141 142 64 143 143 144 144 145 145 146 146 147 147 148 148 149 149 150 150 151 151 152 152 153 153 154 154 155 155 156 156 157 157 158 158 159 159 160 160 161 161 162 162 163 163 164 164 165 165 166 166 167 167 168 168 169 169 170 170 171</DataArray>
        <DataArray type="Int64" Name="offsets" format="ascii">2 4 6 8 10 12 14 16 18 20 22 24 26 28 30 32 34 36 38 40 42 44 46 48 50 52 54 56 58 60 62 64 66 68 70 72 74 76 78 80 82 84 86 88 90 92 94 96 98 100 102 104 106 108 110 112 114 116 118 120 122 124 126 128 130 132 134 136 138 140 142 144 146 148 150 152 154 156 158 160 162 164 166 168 170 172 174 176 178 180 182 184 186 188 190 192 194 196 198 200 202 204 206 208 210 212 214 216 218 220 222 224 226 228 230 232 234 236 238 240 242 244 246 248 250 252 254 256 258 260 262 264 266 268 270 272 274 276 278 280 282 284 286 288 290 292 294 296 298 300 302 304 306 308 310 312 314 316 318 320 322 324 326 328 330 332 334 336 338 340 342</DataArray>
      </Lines>
    </Piece>
  </PolyData>
</VTKFile>
